<svg xmlns="http://www.w3.org/2000/svg" viewBox="0 0 1200 720"><defs><linearGradient id="g" x1="0" x2="1"><stop stop-color="#11161b"/><stop offset="1" stop-color="#f6efe2"/></linearGradient></defs><rect width="1200" height="720" fill="url(#g)"/><rect x="710" y="95" width="330" height="520" rx="18" fill="#101214"/><rect x="780" y="195" width="92" height="150" rx="18" fill="#232b33"/><circle cx="826" cy="235" r="9" fill="#62d28f"/><g fill="#f6efe2" opacity=".8"><circle cx="808" cy="274" r="8"/><circle cx="826" cy="274" r="8"/><circle cx="844" cy="274" r="8"/><circle cx="808" cy="300" r="8"/><circle cx="826" cy="300" r="8"/><circle cx="844" cy="300" r="8"/></g><rect x="890" y="330" width="95" height="28" rx="14" fill="#c89b53"/><rect x="280" y="330" width="240" height="250" rx="42" fill="#11161b"/><circle cx="398" cy="265" r="56" fill="#d8b98a"/><path d="M340 268c32-66 120-60 148 0-54-20-100-19-148 0z" fill="#11161b"/><path d="M520 420c82 20 140 68 178 132l-48 36c-42-52-88-80-150-92z" fill="#101214"/><rect x="0" y="595" width="1200" height="125" fill="#101214"/><path d="M0 612l108-66 115 68 150-88 162 91 126-69 150 80 150-76 132 78 107-45v135H0z" fill="#c89b53"/></svg>