<svg xmlns="http://www.w3.org/2000/svg" viewBox="0 0 1200 720"><defs><linearGradient id="g" x1="0" x2="1"><stop stop-color="#f6efe2"/><stop offset="1" stop-color="#171c22"/></linearGradient></defs><rect width="1200" height="720" fill="url(#g)"/><rect x="520" y="105" width="460" height="500" rx="18" fill="#12161a"/><rect x="580" y="155" width="335" height="340" rx="10" fill="#27313a"/><rect x="560" y="360" width="390" height="46" rx="23" fill="#c89b53"/><rect x="905" y="285" width="34" height="180" rx="17" fill="#e6c68c"/><rect x="205" y="335" width="225" height="230" rx="38" fill="#101214"/><circle cx="318" cy="272" r="54" fill="#d8b98a"/><path d="M260 276c36-64 118-58 146 0-50-18-92-18-146 0z" fill="#15181c"/><path d="M430 410c72 17 118 54 152 108l-43 34c-36-40-78-62-129-72z" fill="#101214"/><rect x="0" y="590" width="1200" height="130" fill="#101214"/><path d="M0 602l108-60 112 66 130-86 160 88 130-69 150 82 140-74 170 72 100-35v134H0z" fill="#c89b53"/><path d="M245 585l72-60 82 60zM802 585l62-54 70 54z" fill="#fffaf2" opacity=".8"/></svg>